<svg width="120" height="120" viewBox="0 0 120 120" fill="none" xmlns="http://www.w3.org/2000/svg">
<rect width="120" height="120" rx="6" fill="#282828"/>
<path d="M75.6237 103.861C90.0019 103.861 101.658 92.205 101.658 77.8268C101.658 63.4486 90.0019 51.7928 75.6237 51.7928C61.2455 51.7928 49.5896 63.4486 49.5896 77.8268C49.5896 92.205 61.2455 103.861 75.6237 103.861Z" fill="#FFDE00"/>
<path d="M59.1701 50.0219H38.554V22.3011L59.1701 50.0219Z" fill="#27348B"/>
<path d="M35.1173 53.4935H17.4082V102.164H35.1173V53.4935Z" fill="#E30613"/>
<path d="M14 106H105V15H14V106ZM60.2855 18.4051C69.0173 18.4051 76.122 25.5097 76.122 34.2415C76.122 41.9423 70.5953 48.3772 63.2978 49.7869L39.8868 18.4051H60.2855ZM89.1145 102.356C91.2886 101.196 93.291 99.7545 95.0759 98.0783L98.267 102.356H89.1145ZM95.3459 92.7445L66.0576 53.483H76.0869C89.5212 53.483 100.448 64.4135 100.448 77.8443C100.448 83.4551 98.5406 88.6241 95.3459 92.7445ZM38.5227 22.2695L59.2686 50.078H38.5227V22.2695ZM17.4086 18.4051H35.1176V50.078H17.4086V18.4051ZM17.4086 102.209V53.483H35.1176V102.209H17.4086ZM38.5227 102.209V53.483H60.2855H61.8074L93.028 95.3325C88.641 99.5862 82.662 102.209 76.0834 102.209H38.5227ZM101.595 101.122L97.443 95.5569C99.1297 93.5265 100.536 91.2576 101.595 88.8029V101.122ZM101.595 66.8858C97.3342 57.0108 87.5049 50.078 76.0834 50.078H71.1985C76.2272 46.6028 79.527 40.8026 79.527 34.2415C79.527 27.6804 76.2237 21.8802 71.1985 18.4051H101.595V66.8858Z" fill="white"/>
</svg>
